{"title":"To Catch A Thief [1955] 720p BRRip H264 AC3 - CODY","uid":8284366,"size":2083423298,"categoryP":"video","categoryS":"hd___movies","magnet":"?xt=urn:btih:4239aca05ec950dd739726f1187582710e07e3d6&amp;dn=To+Catch+A+Thief+%5B1955%5D+720p+BRRip+H264+AC3+-+CODY&amp;tr=udp%3A%2F%2Ftracker.openbittorrent.com%3A80&amp;tr=udp%3A%2F%2Fopen.demonii.com%3A1337&amp;tr=udp%3A%2F%2Ftracker.coppersurfer.tk%3A6969&amp;tr=udp%3A%2F%2Fexodus.desync.com%3A6969","seeders":2,"leechers":1,"uploader":"CODYBOSS1969","files":7,"time":1363910281,"description":"General\nComplete name                            : To Catch A Thief [1955] 720p BRRip H264 AC3 - CODY.mp4\nFormat                                   : MPEG-4\nFormat profile                           : Base Media\nCodec ID                                 : isom\nFile size                                : 1.94 GiB\nDuration                                 : 1h 46mn\nOverall bit rate mode                    : Variable\nOverall bit rate                         : 2 607 Kbps\nEncoded date                             : UTC 2012-10-01 17:27:55\n\nVideo\nID                                       : 1\nFormat                                   : AVC\nFormat/Info                              : Advanced Video Codec\nFormat profile                           : &lt;a class=&quot;__cf_email__&quot; href=&quot;/cdn-cgi/l/email-protection&quot; data-cfemail=&quot;bef6d7d9d6fef28a908f&quot;&gt;[email&amp;#160;protected]&lt;/a&gt;&lt;script cf-hash='f9e31' type=&quot;text/javascript&quot;&gt;\n/* &lt;![CDATA[ */!function(){try{var t=&quot;currentScript&quot;in document?document.currentScript:function(){for(var t=document.getElementsByTagName(&quot;script&quot;),e=t.length;e--;)if(t[e].getAttribute(&quot;cf-hash&quot;))return t[e]}();if(t&amp;&amp;t.previousSibling){var e,r,n,i,c=t.previousSibling,a=c.getAttribute(&quot;data-cfemail&quot;);if(a){for(e=&quot;&quot;,r=parseInt(a.substr(0,2),16),n=2;a.length-n;n+=2)i=parseInt(a.substr(n,2),16)^r,e+=String.fromCharCode(i);e=document.createTextNode(e),c.parentNode.replaceChild(e,c)}}}catch(u){}}();/* ]]&gt; */&lt;/script&gt;\nFormat settings, CABAC                   : Yes\nFormat settings, ReFrames                : 5 frames\nCodec ID                                 : avc1\nCodec ID/Info                            : Advanced Video Coding\nDuration                                 : 1h 46mn\nBit rate mode                            : Variable\nBit rate                                 : 2 220 Kbps\nMaximum bit rate                         : 20.0 Mbps\nWidth                                    : 1 280 pixels\nHeight                                   : 720 pixels\nDisplay aspect ratio                     : 16:9\nFrame rate mode                          : Constant\nFrame rate                               : 23.976 fps\nColor space                              : YUV\nChroma subsampling                       : 4:2:0\nBit depth                                : 8 bits\nScan type                                : Progressive\nBits/(Pixel*Frame)                       : 0.100\nStream size                              : 1.65 GiB (85%)\nWriting library                          : x264 core 125 r2200 999b753\nEncoding settings                        : rc=2pass\nColor primaries                          : Generic film\n\nAudio\nID                                       : 2\nFormat                                   : AC-3\nFormat/Info                              : Audio Coding 3\nMode extension                           : CM (complete main)\nCodec ID                                 : ac-3\nDuration                                 : 1h 46mn\nBit rate mode                            : Constant\nBit rate                                 : 384 Kbps\nChannel(s)                               : 2 channels\nChannel positions                        : Front: L R\nSampling rate                            : 48.0 KHz\nBit depth                                : 16 bits\nCompression mode                         : Lossy\nStream size                              : 293 MiB (15%)\nEncoded date                             : UTC 2012-10-01 17:28:18\n\nAudio language                           : English\n\nIMDB link:                                &lt;a href=&quot; http://www.imdb.com/title/tt0048728/&quot; rel=&quot;nofollow&quot; target=&quot;_NEW&quot;&gt; http://www.imdb.com/title/tt0048728/&lt;/a&gt;\n\nSubtitles included                       : English, Romanian\n\nPlease seed at least 1,5:1 . This way this torrent has a chance to survive !\n\nThanks . Enjoy !! ","torrent":{"xt":"urn:btih:4239aca05ec950dd739726f1187582710e07e3d6","amp;dn":"To+Catch+A+Thief+%5B1955%5D+720p+BRRip+H264+AC3+-+CODY","amp;tr":["udp%3A%2F%2Ftracker.openbittorrent.com%3A80","udp%3A%2F%2Fopen.demonii.com%3A1337","udp%3A%2F%2Ftracker.coppersurfer.tk%3A6969","udp%3A%2F%2Fexodus.desync.com%3A6969"],"infoHash":"4239aca05ec950dd739726f1187582710e07e3d6","infoHashBuffer":{"type":"Buffer","data":[66,57,172,160,94,201,80,221,115,151,38,241,24,117,130,113,14,7,227,214]},"announce":[],"urlList":[]}}